<?xml version="1.0" standalone="no"?><!DOCTYPE svg PUBLIC "-//W3C//DTD SVG 1.1//EN" "http://www.w3.org/Graphics/SVG/1.1/DTD/svg11.dtd"><svg t="1730786135139" class="icon" viewBox="0 0 1024 1024" version="1.1" xmlns="http://www.w3.org/2000/svg" p-id="17431" xmlns:xlink="http://www.w3.org/1999/xlink" width="200" height="200"><path d="M336.64 848a58.666667 58.666667 0 0 1 3.562667 117.226667l-3.562667 0.106666a58.666667 58.666667 0 0 1-3.584-117.226666l3.584-0.106667zM165.290667 90.090667c13.973333 0 26.005333 10.453333 28.736 24.938666l24.64 130.090667h726.08c16.213333-0.021333 29.354667 13.845333 29.376 30.976 0 2.261333-0.234667 4.522667-0.704 6.741333L886.912 688.853333l0.021333-72.746666-0.192-4.842667a61.44 61.44 0 0 0-85.696-51.52l-3.498666 1.664-188.074667 96.149333-3.541333 1.962667a61.44 61.44 0 0 0-29.802667 48.661333l-0.128 4.053334v81.856H295.914667c-27.584 0-51.456-20.330667-57.322667-48.832L120.405333 182.890667a52.266667 52.266667 0 0 1-4.394666 0.213333H86.677333C62.357333 183.104 42.666667 162.282667 42.666667 136.597333c0-25.685333 19.690667-46.506667 44.010666-46.506666h78.613334z" fill="#0066FF" p-id="17432"></path><path d="M825.813333 597.333333l2.218667 0.170667a18.752 18.752 0 0 1 16.106667 16.384l0.128 2.218667V972.8H637.44l-2.346667-0.149333a18.773333 18.773333 0 0 1-15.786666-13.781334l-0.490667-2.496-0.149333-2.346666V712.256l0.192-2.602667a18.773333 18.773333 0 0 1 7.808-12.757333l2.24-1.344 188.053333-96.149333 2.154667-0.96a18.688 18.688 0 0 1 4.458666-1.002667L825.813333 597.333333zM704 853.333333h-42.666667v42.666667h42.666667v-42.666667z m85.333333 0h-42.666666v42.666667h42.666666v-42.666667z m-85.333333-85.333333h-42.666667v42.666667h42.666667v-42.666667z m85.333333 0h-42.666666v42.666667h42.666666v-42.666667zM937.813333 972.778667l2.346667-0.149334a18.773333 18.773333 0 0 0 16.277333-16.277333l0.149334-2.346667v-145.706666a18.773333 18.773333 0 0 0-6.954667-14.592l-1.984-1.408-56.32-34.602667a18.773333 18.773333 0 0 0-4.394667-1.984l-0.32-0.085333a18.773333 18.773333 0 0 0-23.744 15.701333l-0.149333 2.346667V972.8h75.093333z" fill="#F99C34" p-id="17433"></path></svg>